<svg width="181" height="47" viewBox="0 0 181 47" fill="none" xmlns="http://www.w3.org/2000/svg">
<path d="M13.5693 35.1399C13.8487 35.1277 14.1276 35.1724 14.3891 35.2711C14.6506 35.3698 14.8893 35.5206 15.0907 35.7142C15.2921 35.9078 15.4519 36.1403 15.5605 36.3974C15.6692 36.6546 15.7243 36.9311 15.7225 37.2102C15.7225 38.3986 14.8389 39.2804 13.5693 39.2804H2.19159C1.90462 39.2912 1.61847 39.2434 1.35062 39.1401C1.08277 39.0367 0.83885 38.8799 0.633764 38.6793C0.428677 38.4787 0.26673 38.2384 0.157817 37.9732C0.0489049 37.708 -0.00468534 37.4235 0.00032106 37.1369V15.3839C0.00032106 14.7938 0.235196 14.2279 0.653276 13.8106C1.07136 13.3933 1.63839 13.1589 2.22965 13.1589C2.8209 13.1589 3.38794 13.3933 3.80602 13.8106C4.2241 14.2279 4.45898 14.7938 4.45898 15.3839V35.1399H13.5693Z" fill="#333333"/>
<path d="M21.5272 26.4708C21.2578 26.6796 20.9354 26.8094 20.5962 26.8455C20.257 26.8817 19.9144 26.8227 19.607 26.6753C19.2995 26.528 19.0392 26.298 18.8554 26.0112C18.6716 25.7244 18.5716 25.3921 18.5665 25.0517C18.5706 24.5821 18.7488 24.1307 19.0667 23.7846C20.1542 22.5961 22.0573 21.3425 25.3714 21.3425C30.1373 21.3425 32.9837 23.6842 32.9837 27.7488V37.5711C32.9837 38.1109 32.7689 38.6285 32.3865 39.0101C32.0041 39.3918 31.4855 39.6062 30.9447 39.6062C30.4039 39.6062 29.8853 39.3918 29.5029 39.0101C29.1205 38.6285 28.9057 38.1109 28.9057 37.5711C27.8671 39.2209 26.187 39.7961 23.8707 39.7961C20.1026 39.7961 17.6177 37.4572 17.6177 34.0031C17.6177 30.435 20.4995 28.5926 23.8435 28.5926H28.8785V27.9034C28.8785 26.1777 27.6089 25.0273 25.3795 25.0273C23.6804 25.0137 22.4869 25.7789 21.5272 26.4708ZM28.8676 32.877V31.7917H24.3709C22.6799 31.7917 21.7582 32.6057 21.7582 33.9786C21.7582 35.4357 22.7968 36.3203 24.95 36.3203C26.9863 36.3311 28.8676 35.026 28.8676 32.877Z" fill="#333333"/>
<path d="M38.4207 25.5508L46.9275 20.542C47.2317 20.3651 47.58 20.2781 47.9318 20.2912C48.2836 20.3043 48.6244 20.417 48.9145 20.6161C49.2046 20.8152 49.432 21.0925 49.5702 21.4156C49.7085 21.7388 49.7518 22.0945 49.6951 22.4413L48.2379 35.905L54.2652 32.3451C54.4652 32.2273 54.6864 32.15 54.9162 32.1176C55.1461 32.0851 55.3801 32.0982 55.6049 32.156C55.8298 32.2139 56.041 32.3153 56.2265 32.4546C56.412 32.5939 56.5682 32.7683 56.6862 32.9678C56.8042 33.1674 56.8817 33.3881 56.9142 33.6176C56.9467 33.847 56.9336 34.0805 56.8757 34.3049C56.8177 34.5293 56.7161 34.7401 56.5765 34.9252C56.437 35.1104 56.2622 35.2663 56.0623 35.3841L46.9248 40.7674C46.5194 40.9999 46.0389 41.0649 45.5861 40.9482C45.1333 40.8316 44.7443 40.5426 44.5024 40.1433C44.2842 39.782 44.2049 39.3538 44.2795 38.9386L45.7748 25.2361L40.1797 28.5301C39.9833 28.6454 39.7661 28.7209 39.5405 28.7524C39.3149 28.7839 39.0853 28.7708 38.8648 28.7137C38.6442 28.6566 38.4371 28.5568 38.2553 28.4198C38.0734 28.2829 37.9204 28.1115 37.8049 27.9155C37.6894 27.7196 37.6137 27.5028 37.5822 27.2776C37.5506 27.0524 37.5638 26.8233 37.621 26.6032C37.6781 26.3831 37.7782 26.1764 37.9154 25.9949C38.0526 25.8134 38.2243 25.6607 38.4207 25.5454V25.5508Z" fill="#56CCF2"/>
<path d="M50.3394 12.6489L54.7845 10.0413C54.943 9.94939 55.1245 9.90418 55.3078 9.91094C55.491 9.91769 55.6686 9.97614 55.82 10.0795C55.9714 10.1829 56.0903 10.3269 56.163 10.4949C56.2357 10.663 56.2592 10.8482 56.2308 11.029L55.4614 18.0539L58.6097 16.2007C58.7143 16.1319 58.8318 16.085 58.9551 16.0629C59.0784 16.0408 59.2049 16.044 59.3269 16.0722C59.449 16.1004 59.564 16.1531 59.665 16.227C59.766 16.301 59.8509 16.3946 59.9145 16.5023C59.9782 16.61 60.0192 16.7295 60.0352 16.8535C60.0511 16.9775 60.0416 17.1034 60.0073 17.2237C59.973 17.3439 59.9146 17.4559 59.8355 17.5529C59.7565 17.6499 59.6585 17.7299 59.5476 17.788L54.7817 20.599C54.5701 20.72 54.3195 20.7536 54.0833 20.6928C53.8471 20.632 53.6441 20.4815 53.5175 20.2734C53.4034 20.0847 53.3618 19.8609 53.4006 19.6439L54.1809 12.4834L51.2583 14.2036C51.0517 14.3252 50.8052 14.36 50.573 14.3002C50.3407 14.2404 50.1418 14.091 50.0199 13.8848C49.8981 13.6786 49.8633 13.4326 49.9232 13.2008C49.9831 12.969 50.1328 12.7705 50.3394 12.6489Z" fill="#56CCF2"/>
<path d="M57.2671 5.5019L59.9096 3.94443C60.0038 3.88981 60.1115 3.86293 60.2203 3.8669C60.3292 3.87087 60.4346 3.90553 60.5245 3.96686C60.6144 4.02819 60.6851 4.11368 60.7283 4.21344C60.7715 4.3132 60.7855 4.42313 60.7687 4.53052L60.3147 8.71452L62.1879 7.61289C62.3134 7.53913 62.463 7.51813 62.604 7.55452C62.745 7.5909 62.8657 7.68168 62.9396 7.8069C63.0135 7.93211 63.0346 8.0815 62.9981 8.2222C62.9616 8.3629 62.8707 8.48338 62.7452 8.55714L59.9069 10.2286C59.845 10.2661 59.7762 10.2909 59.7046 10.3015C59.6329 10.3121 59.5599 10.3083 59.4898 10.2904C59.4196 10.2724 59.3538 10.2407 59.2961 10.197C59.2384 10.1533 59.19 10.0985 59.1538 10.0359C59.0866 9.92339 59.0625 9.79039 59.0859 9.66148L59.5399 5.4015L57.8026 6.42444C57.7418 6.47386 57.671 6.50958 57.5951 6.52913C57.5192 6.54868 57.4399 6.55162 57.3628 6.53773C57.2856 6.52384 57.2123 6.49345 57.148 6.44866C57.0837 6.40387 57.0299 6.34572 56.9902 6.27822C56.9506 6.21071 56.926 6.13544 56.9182 6.05757C56.9104 5.97969 56.9196 5.90106 56.9451 5.82706C56.9706 5.75306 57.0119 5.68544 57.0661 5.62885C57.1202 5.57226 57.186 5.52802 57.2589 5.49919L57.2671 5.5019Z" fill="#56CCF2"/>
<path d="M61.7716 0.837613L63.1309 0.0398852C63.1981 0.000993605 63.278 -0.00999266 63.3532 0.00929251C63.4285 0.0285777 63.4932 0.0765914 63.5333 0.142993C63.5691 0.202444 63.5825 0.272628 63.5713 0.341068L63.3403 2.48191L64.2972 1.91753C64.3614 1.87975 64.438 1.86896 64.5101 1.88753C64.5459 1.89673 64.5794 1.91286 64.6089 1.935C64.6384 1.95714 64.6632 1.98486 64.6819 2.01657C64.7007 2.04828 64.713 2.08337 64.7181 2.11983C64.7233 2.15628 64.7212 2.1934 64.712 2.22905C64.7028 2.2647 64.6866 2.29819 64.6644 2.32761C64.6422 2.35703 64.6145 2.3818 64.5827 2.40051L63.1228 3.25793C63.0912 3.27807 63.0558 3.29148 63.0188 3.29732C62.9818 3.30317 62.944 3.30132 62.9078 3.29189C62.8715 3.28247 62.8376 3.26567 62.8082 3.24255C62.7787 3.21943 62.7544 3.19048 62.7367 3.15754C62.7013 3.09995 62.6887 3.03126 62.7014 2.96489L62.9379 0.794199L62.0489 1.31788C62.0178 1.33569 61.9835 1.34723 61.948 1.35183C61.9125 1.35642 61.8764 1.35399 61.8418 1.34467C61.8072 1.33535 61.7748 1.31932 61.7464 1.29749C61.7181 1.27567 61.6943 1.24848 61.6764 1.21748C61.6586 1.18648 61.647 1.15228 61.6424 1.11682C61.6378 1.08136 61.6402 1.04534 61.6496 1.01083C61.6589 0.976307 61.675 0.943963 61.6968 0.91564C61.7187 0.887317 61.7459 0.863569 61.777 0.845753L61.7716 0.837613Z" fill="#56CCF2"/>
<path d="M65.6675 38.0568L59.7489 24.4384C59.6446 24.1798 59.592 23.9033 59.5939 23.6244C59.5928 23.3523 59.6458 23.0826 59.7496 22.8309C59.8535 22.5792 60.0062 22.3506 60.1991 22.1581C60.3919 21.9657 60.621 21.8132 60.8732 21.7095C61.1253 21.6059 61.3956 21.5531 61.6683 21.5541C62.0842 21.5484 62.4917 21.6706 62.8356 21.9041C63.1795 22.1376 63.443 22.4711 63.5904 22.8593L67.818 33.5255L72.0455 22.8647C72.1929 22.4765 72.4564 22.143 72.8003 21.9095C73.1442 21.676 73.5518 21.5538 73.9676 21.5596C74.2406 21.5581 74.5111 21.6107 74.7636 21.7142C75.0161 21.8177 75.2455 21.9701 75.4386 22.1626C75.6317 22.3551 75.7847 22.5839 75.8888 22.8357C75.9928 23.0875 76.0458 23.3575 76.0447 23.6299C76.0467 23.9087 75.994 24.1852 75.8898 24.4439L68.7396 40.5558C67.0486 44.3165 64.6262 47 60.782 47C60.2722 47 59.7833 46.7979 59.4228 46.4382C59.0624 46.0784 58.8599 45.5905 58.8599 45.0817C58.8599 44.5729 59.0624 44.085 59.4228 43.7252C59.7833 43.3655 60.2722 43.1633 60.782 43.1633C63.2451 43.1579 64.3978 41.2016 65.6675 38.0568Z" fill="black"/>
<path d="M87.504 26.3947C87.504 29.2329 96.9596 27.9305 96.9596 34.2635C96.9596 37.8695 93.8848 39.7119 89.9264 39.7119C86.6204 39.7119 84.0839 38.2168 83.1296 37.0257C82.823 36.6978 82.6512 36.2667 82.6484 35.8182C82.6548 35.3316 82.8513 34.8666 83.1961 34.5225C83.541 34.1783 84.0068 33.9822 84.4944 33.9758C84.9344 33.9796 85.3579 34.1437 85.6852 34.4371C86.8527 35.4625 88.3577 36.0227 89.9128 36.0109C91.6419 36.0109 92.7565 35.5496 92.7565 34.4751C92.7565 31.3683 83.339 32.98 83.339 26.4571C83.339 23.0057 86.2208 21.3153 89.7578 21.3153C92.4765 21.3153 94.9097 22.3518 95.9836 23.6949C96.2526 24.0162 96.3896 24.4273 96.367 24.8454C96.3606 25.332 96.1641 25.797 95.8193 26.1411C95.4744 26.4853 95.0086 26.6814 94.521 26.6878C93.9772 26.6878 93.6374 26.4571 93.2133 26.1451C92.2348 25.3675 91.0222 24.9421 89.7714 24.9376C88.3577 24.9376 87.504 25.4342 87.504 26.3947Z" fill="#333333"/>
<path d="M107.454 21.3289C110.988 21.3289 113.027 23.0925 113.707 23.9771C113.93 24.2475 114.072 24.5755 114.115 24.923C114.159 25.2706 114.104 25.6234 113.955 25.9406C113.806 26.2578 113.57 26.5264 113.275 26.7153C112.979 26.9042 112.636 27.0057 112.285 27.0079C112.015 27.0095 111.747 26.9521 111.502 26.8396C111.256 26.7271 111.038 26.5623 110.863 26.3567C110.439 25.8715 109.912 25.4859 109.321 25.2275C108.729 24.969 108.088 24.8441 107.443 24.8617C104.752 24.8617 103.292 26.9319 103.292 30.5407C103.292 34.2227 104.752 36.2578 107.443 36.2578C109.21 36.2578 110.366 35.3759 111.249 34.722C111.577 34.4652 111.985 34.33 112.402 34.3394C112.78 34.3425 113.147 34.4606 113.456 34.6779C113.764 34.8952 113.999 35.2013 114.128 35.5554C114.258 35.9094 114.276 36.2945 114.18 36.659C114.085 37.0236 113.88 37.3503 113.593 37.5954C112.709 38.4095 110.602 39.7824 107.443 39.7824C102.215 39.7824 99.1021 36.7977 99.1021 30.538C99.1021 24.2783 102.223 21.3289 107.454 21.3289Z" fill="#333333"/>
<path d="M121.023 23.6325C121.754 22.52 123.369 21.3316 125.944 21.3316C131.172 21.3316 132.401 24.669 132.401 28.0064V37.5982C132.4 37.8666 132.346 38.1322 132.24 38.3791C132.134 38.6259 131.98 38.8491 131.786 39.0352C131.592 39.2213 131.363 39.3666 131.112 39.4623C130.86 39.558 130.592 39.6023 130.324 39.5925C129.095 39.5925 128.249 38.7486 128.249 37.5982V28.7635C128.249 26.5765 127.366 25.0814 124.867 25.0814C121.985 25.0814 121.023 26.7691 121.023 29.0321V37.5873C121.004 38.1238 120.776 38.6318 120.389 39.0044C120.002 39.3771 119.485 39.5853 118.947 39.5853C118.409 39.5853 117.893 39.3771 117.505 39.0044C117.118 38.6318 116.891 38.1238 116.872 37.5873V14.0408C116.872 13.4913 117.09 12.9644 117.48 12.5759C117.869 12.1874 118.397 11.9691 118.947 11.9691C119.498 11.9691 120.026 12.1874 120.415 12.5759C120.804 12.9644 121.023 13.4913 121.023 14.0408V23.6325Z" fill="#333333"/>
<path d="M143.664 39.7824C138.474 39.7824 135.236 36.8276 135.236 30.576C135.236 24.3244 138.466 21.3289 143.664 21.3289C148.862 21.3289 152.092 24.2837 152.092 30.576C152.092 36.8683 148.854 39.7824 143.664 39.7824ZM143.664 24.8589C140.897 24.8589 139.437 26.7773 139.437 30.576C139.437 34.3747 140.897 36.2523 143.664 36.2523C146.432 36.2523 147.897 34.334 147.897 30.576C147.897 26.818 146.432 24.8589 143.664 24.8589Z" fill="#333333"/>
<path d="M162.73 39.7824C157.54 39.7824 154.302 36.8276 154.302 30.576C154.302 24.3244 157.532 21.3289 162.73 21.3289C167.928 21.3289 171.158 24.2837 171.158 30.576C171.158 36.8683 167.92 39.7824 162.73 39.7824ZM162.73 24.8589C159.963 24.8589 158.503 26.7773 158.503 30.576C158.503 34.3747 159.963 36.2523 162.73 36.2523C165.498 36.2523 166.958 34.334 166.958 30.576C166.958 26.818 165.498 24.8589 162.73 24.8589Z" fill="#333333"/>
<path d="M178.346 14.0408V35.0639C178.359 35.2494 178.442 35.4233 178.577 35.551C178.713 35.6786 178.891 35.7508 179.078 35.7531C179.588 35.7531 180.076 35.9552 180.437 36.3149C180.797 36.6747 181 37.1626 181 37.6714C181 38.1802 180.797 38.6681 180.437 39.0279C180.076 39.3876 179.588 39.5898 179.078 39.5898C176.087 39.5898 174.184 37.9021 174.184 34.6786V14.0408C174.184 13.4913 174.403 12.9644 174.792 12.5759C175.181 12.1874 175.709 11.9691 176.26 11.9691C176.81 11.9691 177.338 12.1874 177.728 12.5759C178.117 12.9644 178.336 13.4913 178.336 14.0408H178.346Z" fill="#333333"/>
</svg>
